<mxfile host="app.diagrams.net" agent="Mozilla/5.0 (Windows NT 10.0; Win64; x64) AppleWebKit/537.36 (KHTML, like Gecko) Chrome/134.0.0.0 Safari/537.36" version="26.1.2">
  <diagram name="Página-1" id="uoKEwFERz6G1kB-ZbmlT">
    <mxGraphModel dx="1221" dy="626" grid="1" gridSize="10" guides="1" tooltips="1" connect="1" arrows="1" fold="1" page="1" pageScale="1" pageWidth="827" pageHeight="1169" math="0" shadow="0">
      <root>
        <mxCell id="0" />
        <mxCell id="1" parent="0" />
        <mxCell id="q7RfSWMVDPBfRpGUvCgF-1" value="Diagrama de Arquitectura" style="text;html=1;align=center;verticalAlign=middle;whiteSpace=wrap;rounded=0;" parent="1" vertex="1">
          <mxGeometry x="480" y="50" width="300" height="30" as="geometry" />
        </mxCell>
        <mxCell id="_lCPZMD6BuG17Kx4_mdo-12" style="edgeStyle=orthogonalEdgeStyle;rounded=0;orthogonalLoop=1;jettySize=auto;html=1;entryX=0;entryY=0.5;entryDx=0;entryDy=0;" edge="1" parent="1" source="q7RfSWMVDPBfRpGUvCgF-2" target="_lCPZMD6BuG17Kx4_mdo-2">
          <mxGeometry relative="1" as="geometry" />
        </mxCell>
        <mxCell id="q7RfSWMVDPBfRpGUvCgF-2" value="&lt;h3 data-pm-slice=&quot;1 1 []&quot;&gt;asp .net&lt;/h3&gt;&lt;div&gt;Net Core 8.0&lt;/div&gt;" style="shape=process;whiteSpace=wrap;html=1;backgroundOutline=1;" parent="1" vertex="1">
          <mxGeometry x="70" y="162.5" width="220" height="150" as="geometry" />
        </mxCell>
        <mxCell id="_lCPZMD6BuG17Kx4_mdo-1" value="&lt;h3 data-pm-slice=&quot;1 1 []&quot;&gt;&lt;strong&gt;Capa de Presentación&lt;/strong&gt;&lt;strong style=&quot;background-color: transparent; color: light-dark(rgb(0, 0, 0), rgb(255, 255, 255)); font-size: 12px;&quot;&gt;(Frontend)&lt;/strong&gt;&lt;/h3&gt;" style="rounded=1;whiteSpace=wrap;html=1;" vertex="1" parent="1">
          <mxGeometry x="85" y="122.5" width="190" height="40" as="geometry" />
        </mxCell>
        <mxCell id="_lCPZMD6BuG17Kx4_mdo-18" style="edgeStyle=orthogonalEdgeStyle;rounded=0;orthogonalLoop=1;jettySize=auto;html=1;exitX=0;exitY=0.25;exitDx=0;exitDy=0;entryX=1;entryY=0.25;entryDx=0;entryDy=0;" edge="1" parent="1" source="_lCPZMD6BuG17Kx4_mdo-2" target="q7RfSWMVDPBfRpGUvCgF-2">
          <mxGeometry relative="1" as="geometry" />
        </mxCell>
        <mxCell id="_lCPZMD6BuG17Kx4_mdo-2" value="&lt;h3 data-pm-slice=&quot;1 1 []&quot;&gt;&lt;p data-pm-slice=&quot;1 1 [&amp;quot;list&amp;quot;,{&amp;quot;spread&amp;quot;:false,&amp;quot;start&amp;quot;:320,&amp;quot;end&amp;quot;:634},&amp;quot;regular_list_item&amp;quot;,{&amp;quot;start&amp;quot;:334,&amp;quot;end&amp;quot;:634}]&quot;&gt;ASP.NET Core&lt;/p&gt;&lt;p data-pm-slice=&quot;1 1 [&amp;quot;list&amp;quot;,{&amp;quot;spread&amp;quot;:false,&amp;quot;start&amp;quot;:320,&amp;quot;end&amp;quot;:634},&amp;quot;regular_list_item&amp;quot;,{&amp;quot;start&amp;quot;:334,&amp;quot;end&amp;quot;:634}]&quot;&gt;&amp;nbsp;&lt;span style=&quot;background-color: transparent; color: light-dark(rgb(0, 0, 0), rgb(255, 255, 255)); font-size: 12px; font-weight: normal;&quot;&gt;Microservicios en ASP.NET Core:&lt;/span&gt;&lt;/p&gt;&lt;p data-pm-slice=&quot;1 1 [&amp;quot;list&amp;quot;,{&amp;quot;spread&amp;quot;:false,&amp;quot;start&amp;quot;:320,&amp;quot;end&amp;quot;:634},&amp;quot;regular_list_item&amp;quot;,{&amp;quot;start&amp;quot;:334,&amp;quot;end&amp;quot;:634}]&quot;&gt;&lt;span style=&quot;font-size: 12px; font-weight: 400;&quot;&gt;Net Core 8.0&lt;/span&gt;&lt;span style=&quot;background-color: transparent; color: light-dark(rgb(0, 0, 0), rgb(255, 255, 255)); font-size: 12px; font-weight: normal;&quot;&gt;&lt;/span&gt;&lt;/p&gt;&lt;/h3&gt;" style="shape=process;whiteSpace=wrap;html=1;backgroundOutline=1;" vertex="1" parent="1">
          <mxGeometry x="330" y="160" width="220" height="150" as="geometry" />
        </mxCell>
        <mxCell id="_lCPZMD6BuG17Kx4_mdo-3" value="&lt;h3 data-pm-slice=&quot;1 1 []&quot;&gt;&lt;strong&gt;Capa de Aplicación (Backend)&lt;/strong&gt;&lt;/h3&gt;" style="rounded=1;whiteSpace=wrap;html=1;" vertex="1" parent="1">
          <mxGeometry x="345" y="120" width="190" height="40" as="geometry" />
        </mxCell>
        <mxCell id="_lCPZMD6BuG17Kx4_mdo-5" value="&lt;h3 data-pm-slice=&quot;1 1 []&quot;&gt;&lt;strong&gt;Capa de Datos (Bases de Datos y Almacenamiento)&lt;/strong&gt;&lt;/h3&gt;" style="rounded=1;whiteSpace=wrap;html=1;" vertex="1" parent="1">
          <mxGeometry x="645" y="120" width="190" height="40" as="geometry" />
        </mxCell>
        <mxCell id="_lCPZMD6BuG17Kx4_mdo-6" value="&lt;h3 data-pm-slice=&quot;1 1 []&quot;&gt;&lt;p data-pm-slice=&quot;1 1 [&amp;quot;list&amp;quot;,{&amp;quot;spread&amp;quot;:false,&amp;quot;start&amp;quot;:955,&amp;quot;end&amp;quot;:1199},&amp;quot;regular_list_item&amp;quot;,{&amp;quot;start&amp;quot;:955,&amp;quot;end&amp;quot;:994}]&quot;&gt;&lt;strong&gt;Proveedor Cloud ( AWS)&lt;/strong&gt;&lt;/p&gt;&lt;/h3&gt;" style="shape=process;whiteSpace=wrap;html=1;backgroundOutline=1;" vertex="1" parent="1">
          <mxGeometry x="890" y="160" width="220" height="150" as="geometry" />
        </mxCell>
        <mxCell id="_lCPZMD6BuG17Kx4_mdo-7" value="&lt;h3 data-pm-slice=&quot;1 1 []&quot;&gt;&lt;strong&gt;Capa de Infraestructura (Servicios y Hosting)&lt;/strong&gt;&lt;/h3&gt;" style="rounded=1;whiteSpace=wrap;html=1;" vertex="1" parent="1">
          <mxGeometry x="905" y="120" width="190" height="40" as="geometry" />
        </mxCell>
        <mxCell id="_lCPZMD6BuG17Kx4_mdo-8" value="" style="shape=cylinder3;whiteSpace=wrap;html=1;boundedLbl=1;backgroundOutline=1;size=15;" vertex="1" parent="1">
          <mxGeometry x="650" y="160" width="100" height="155" as="geometry" />
        </mxCell>
        <mxCell id="_lCPZMD6BuG17Kx4_mdo-10" value="" style="shape=cylinder3;whiteSpace=wrap;html=1;boundedLbl=1;backgroundOutline=1;size=15;" vertex="1" parent="1">
          <mxGeometry x="720" y="180" width="100" height="155" as="geometry" />
        </mxCell>
        <mxCell id="_lCPZMD6BuG17Kx4_mdo-11" value="Sql server" style="text;html=1;align=center;verticalAlign=middle;whiteSpace=wrap;rounded=0;" vertex="1" parent="1">
          <mxGeometry x="700" y="242.5" width="60" height="30" as="geometry" />
        </mxCell>
        <mxCell id="_lCPZMD6BuG17Kx4_mdo-13" style="edgeStyle=orthogonalEdgeStyle;rounded=0;orthogonalLoop=1;jettySize=auto;html=1;exitX=1;exitY=0.5;exitDx=0;exitDy=0;entryX=0;entryY=0.5;entryDx=0;entryDy=0;entryPerimeter=0;" edge="1" parent="1" source="_lCPZMD6BuG17Kx4_mdo-2" target="_lCPZMD6BuG17Kx4_mdo-8">
          <mxGeometry relative="1" as="geometry" />
        </mxCell>
        <mxCell id="_lCPZMD6BuG17Kx4_mdo-14" style="edgeStyle=orthogonalEdgeStyle;rounded=0;orthogonalLoop=1;jettySize=auto;html=1;entryX=0.014;entryY=0.653;entryDx=0;entryDy=0;entryPerimeter=0;" edge="1" parent="1" source="_lCPZMD6BuG17Kx4_mdo-10" target="_lCPZMD6BuG17Kx4_mdo-6">
          <mxGeometry relative="1" as="geometry" />
        </mxCell>
        <mxCell id="_lCPZMD6BuG17Kx4_mdo-15" style="edgeStyle=orthogonalEdgeStyle;rounded=0;orthogonalLoop=1;jettySize=auto;html=1;entryX=1.01;entryY=0.357;entryDx=0;entryDy=0;entryPerimeter=0;" edge="1" parent="1" source="_lCPZMD6BuG17Kx4_mdo-6" target="_lCPZMD6BuG17Kx4_mdo-10">
          <mxGeometry relative="1" as="geometry" />
        </mxCell>
        <mxCell id="_lCPZMD6BuG17Kx4_mdo-17" style="edgeStyle=orthogonalEdgeStyle;rounded=0;orthogonalLoop=1;jettySize=auto;html=1;exitX=0;exitY=0;exitDx=0;exitDy=46.25;exitPerimeter=0;entryX=0.955;entryY=0.307;entryDx=0;entryDy=0;entryPerimeter=0;" edge="1" parent="1" source="_lCPZMD6BuG17Kx4_mdo-8" target="_lCPZMD6BuG17Kx4_mdo-2">
          <mxGeometry relative="1" as="geometry" />
        </mxCell>
      </root>
    </mxGraphModel>
  </diagram>
</mxfile>
